<svg width="17" height="17" viewBox="0 0 17 17" fill="none" xmlns="http://www.w3.org/2000/svg">
<path d="M8.5 0C3.8131 0 0 3.81315 0 8.50005C0 13.187 3.8131 17 8.5 17C13.1869 17 17 13.187 17 8.50005C17 3.81315 13.1869 0 8.5 0ZM8.5 15.4545C4.66521 15.4545 1.54545 12.3348 1.54545 8.50005C1.54545 4.66532 4.66521 1.54545 8.5 1.54545C12.3348 1.54545 15.4545 4.66532 15.4545 8.50005C15.4545 12.3348 12.3347 15.4545 8.5 15.4545Z" fill="#FE1111"/>
<path d="M8.49988 3.60606C7.93188 3.60606 7.46979 4.06846 7.46979 4.63683C7.46979 5.20468 7.93188 5.66667 8.49988 5.66667C9.06789 5.66667 9.52998 5.20468 9.52998 4.63683C9.52998 4.06846 9.06789 3.60606 8.49988 3.60606Z" fill="#FE1111"/>
<path d="M8.49999 7.21213C8.07324 7.21213 7.72726 7.5581 7.72726 7.98485V12.6212C7.72726 13.048 8.07324 13.3939 8.49999 13.3939C8.92674 13.3939 9.27272 13.048 9.27272 12.6212V7.98485C9.27272 7.5581 8.92674 7.21213 8.49999 7.21213Z" fill="#FE1111"/>
</svg>
