<svg width="23" height="23" viewBox="0 0 23 23" fill="none" xmlns="http://www.w3.org/2000/svg">
<g clip-path="url(#clip0)">
<path d="M21.8227 9.08568L20.2084 8.81182C20.0402 8.26889 19.824 7.74518 19.5597 7.2455L20.511 5.91461C20.9146 5.34767 20.8522 4.57412 20.3573 4.08404L18.9255 2.65226C18.6565 2.3832 18.3009 2.23425 17.9213 2.23425C17.6235 2.23425 17.34 2.32554 17.0997 2.49851L15.7641 3.44983C15.2452 3.17596 14.7022 2.95015 14.1401 2.78198L13.871 1.18684C13.7557 0.499775 13.1647 9.15527e-05 12.4681 9.15527e-05H10.4453C9.74863 9.15527e-05 9.15766 0.499775 9.04235 1.18684L8.76368 2.82042C8.22556 2.98858 7.70185 3.2096 7.20217 3.47866L5.88089 2.52734C5.64066 2.35437 5.35238 2.26308 5.05449 2.26308C4.67492 2.26308 4.31458 2.41203 4.05032 2.68109L2.61373 4.11287C2.12366 4.60295 2.05639 5.37649 2.45998 5.94344L3.42091 7.29355C3.15665 7.79804 2.94525 8.32174 2.78189 8.86467L1.18675 9.13373C0.499684 9.24904 0 9.84001 0 10.5367V12.5594C0 13.2561 0.499684 13.8471 1.18675 13.9624L2.82033 14.2411C2.98849 14.7792 3.20951 15.3029 3.47857 15.8026L2.53205 17.1191C2.12846 17.686 2.19092 18.4596 2.6858 18.9496L4.11758 20.3814C4.38664 20.6505 4.74219 20.7994 5.12176 20.7994C5.41964 20.7994 5.70312 20.7081 5.94335 20.5352L7.29346 19.5742C7.77873 19.8289 8.28802 20.0355 8.81173 20.1988L9.08079 21.8132C9.1961 22.5003 9.78707 22.9999 10.4837 22.9999H12.5113C13.208 22.9999 13.799 22.5003 13.9143 21.8132L14.1881 20.1988C14.7311 20.0307 15.2548 19.8145 15.7544 19.5502L17.0853 20.5015C17.3256 20.6745 17.6138 20.7658 17.9117 20.7658C18.2913 20.7658 18.6468 20.6168 18.9159 20.3478L20.3477 18.916C20.8378 18.4259 20.905 17.6524 20.5014 17.0854L19.5501 15.7497C19.8144 15.2452 20.0354 14.7215 20.1987 14.1834L21.8131 13.9144C22.5002 13.799 22.9999 13.2081 22.9999 12.5114V10.4886C23.0095 9.79197 22.5098 9.20099 21.8227 9.08568ZM21.7122 12.5114C21.7122 12.5739 21.669 12.6267 21.6065 12.6363L19.5886 12.9726C19.3339 13.0159 19.1321 13.2033 19.0697 13.4483C18.8871 14.1546 18.6084 14.832 18.2336 15.4615C18.1039 15.6825 18.1135 15.9563 18.2625 16.1677L19.4492 17.8398C19.4829 17.8878 19.478 17.9599 19.4348 18.0031L18.003 19.4349C17.9694 19.4685 17.9358 19.4733 17.9117 19.4733C17.8829 19.4733 17.8589 19.4637 17.8397 19.4493L16.1724 18.2626C15.9658 18.1136 15.6872 18.104 15.4662 18.2337C14.8368 18.6085 14.1593 18.8872 13.453 19.0697C13.2032 19.1322 13.0158 19.3388 12.9774 19.5886L12.6362 21.6066C12.6266 21.6691 12.5738 21.7123 12.5113 21.7123H10.4885C10.4261 21.7123 10.3732 21.6691 10.3636 21.6066L10.0273 19.5886C9.98406 19.334 9.79668 19.1322 9.55164 19.0697C8.86458 18.892 8.20154 18.6181 7.58174 18.2626C7.48084 18.2049 7.36553 18.1761 7.25502 18.1761C7.12529 18.1761 6.99076 18.2145 6.88026 18.2962L5.19863 19.4926C5.17461 19.507 5.15058 19.5166 5.12656 19.5166C5.10734 19.5166 5.06891 19.5118 5.03527 19.4781L3.60349 18.0464C3.56025 18.0031 3.55544 17.9358 3.58907 17.883L4.77102 16.2254C4.91996 16.014 4.92957 15.7353 4.79984 15.5143C4.42508 14.8897 4.1368 14.2122 3.95423 13.506C3.88696 13.2609 3.68517 13.0735 3.43532 13.0303L1.40296 12.6844C1.3405 12.6748 1.29726 12.6219 1.29726 12.5594V10.5367C1.29726 10.4742 1.3405 10.4214 1.40296 10.4118L3.4065 10.0754C3.66114 10.0322 3.86774 9.84482 3.9302 9.59498C4.10798 8.88869 4.38184 8.20643 4.7518 7.57702C4.88152 7.35601 4.86711 7.08214 4.71817 6.87554L3.52181 5.19392C3.48818 5.14587 3.49298 5.0738 3.53622 5.03056L4.96801 3.59877C5.00164 3.56514 5.03527 3.56034 5.0593 3.56034C5.08812 3.56034 5.11215 3.56995 5.13137 3.58436L6.78897 4.7663C7.00037 4.91525 7.27904 4.92486 7.50006 4.79513C8.12466 4.42037 8.80212 4.13209 9.5084 3.94951C9.75344 3.88225 9.94082 3.68045 9.98406 3.43061L10.33 1.39824C10.3396 1.33578 10.3925 1.29254 10.4549 1.29254H12.4777C12.5401 1.29254 12.593 1.33578 12.6026 1.39824L12.9389 3.40178C12.9822 3.65643 13.1695 3.86303 13.4194 3.92549C14.1449 4.10807 14.8368 4.39154 15.4806 4.77111C15.7016 4.90083 15.9755 4.89122 16.1869 4.74228L17.8445 3.55073C17.8685 3.53631 17.8925 3.5267 17.9165 3.5267C17.9358 3.5267 17.9742 3.53151 18.0078 3.56514L19.4396 4.99693C19.4829 5.04017 19.4877 5.10743 19.454 5.16028L18.2673 6.8275C18.1183 7.0341 18.1087 7.31277 18.2384 7.53378C18.6132 8.16319 18.8919 8.84065 19.0745 9.54693C19.1369 9.79677 19.3435 9.98415 19.5934 10.0226L21.6113 10.3637C21.6738 10.3733 21.717 10.4262 21.717 10.4886V12.5114H21.7122V12.5114Z" fill="#00C352"/>
<path d="M11.5024 6.53918C8.76371 6.53918 6.53915 8.76374 6.53915 11.5024C6.53915 14.241 8.76371 16.4656 11.5024 16.4656C14.241 16.4656 16.4656 14.241 16.4656 11.5024C16.4656 8.76374 14.241 6.53918 11.5024 6.53918ZM11.5024 15.1683C9.4796 15.1683 7.83641 13.5251 7.83641 11.5024C7.83641 9.47963 9.4796 7.83644 11.5024 7.83644C13.5251 7.83644 15.1683 9.47963 15.1683 11.5024C15.1683 13.5251 13.5251 15.1683 11.5024 15.1683Z" fill="#00C352"/>
</g>
<defs>
<clipPath id="clip0">
<rect width="23" height="23" fill="white" transform="matrix(1 0 0 -1 0 23)"/>
</clipPath>
</defs>
</svg>
