<svg width="32" height="19" viewBox="0 0 32 19" fill="none" xmlns="http://www.w3.org/2000/svg">
<path d="M25.9004 6.7952C25.6506 6.7952 25.4049 6.81203 25.1629 6.84143L23.6424 1.6339C23.7909 1.46074 23.8812 1.23609 23.8812 0.990063C23.8812 0.44335 23.438 0 22.8916 0H18.8095C18.2631 0 17.8199 0.44335 17.8199 0.990063C17.8199 1.53678 18.2631 1.98013 18.8095 1.98013H21.3949L20.3437 3.65403C20.2973 3.64808 20.2497 3.64472 20.202 3.64601L11.3646 3.77422C11.5836 3.59264 11.7232 3.31839 11.7232 3.01167C11.7232 2.46496 11.2801 2.02161 10.7336 2.02161H8.3496C7.80304 2.02161 7.36 2.46496 7.36 3.01167C7.36 3.55839 7.80304 4.00174 8.3496 4.00174H8.52763C8.55138 4.09035 8.58731 4.17717 8.63738 4.25955L9.03481 4.91388L7.93793 7.07895C7.35752 6.895 6.74001 6.7951 6.09954 6.7951C2.73626 6.7952 0 9.53262 0 12.8975C0 16.2625 2.73626 19 6.09954 19C9.00403 19 11.4392 16.9578 12.05 14.2337L15.3136 14.4226C15.3328 14.4237 15.3519 14.4243 15.3709 14.4243C15.7098 14.4243 16.027 14.2503 16.2087 13.9609L22.3323 4.20925L23.2629 7.39587C21.2165 8.38177 19.8007 10.4773 19.8007 12.8975C19.8007 16.2624 22.537 19 25.9004 19C29.2637 19 32 16.2625 32 12.8975C32 9.53262 29.2636 6.7952 25.9004 6.7952ZM10.2445 6.90589L13.5428 12.3367L12.1652 12.257C11.9816 10.5036 11.0523 8.96957 9.7017 7.97713L10.2445 6.90589ZM1.97921 12.8975C1.97921 10.6246 3.8276 8.77532 6.09954 8.77532C6.41769 8.77532 6.72714 8.81275 7.02472 8.88146L5.21681 12.45C5.06589 12.7479 5.07519 13.1017 5.24165 13.3912C5.4081 13.6807 5.70914 13.8667 6.04234 13.886L10.0357 14.1172C9.51477 15.7967 7.94723 17.0199 6.09954 17.0199C3.8276 17.0199 1.97921 15.1706 1.97921 12.8975ZM7.66549 11.9964L8.78909 9.77855C9.48241 10.3778 9.97434 11.2036 10.149 12.1402L7.66549 11.9964ZM15.383 11.5535L11.8568 5.74741L19.0949 5.64237L15.383 11.5535ZM25.9004 17.0199C23.6283 17.0199 21.7799 15.1706 21.7799 12.8975C21.7799 11.3795 22.605 10.0514 23.8294 9.33609L24.9504 13.1752C25.1038 13.7001 25.6537 14.0014 26.1778 13.8479C26.7024 13.6945 27.0035 13.1448 26.8502 12.62L25.7289 8.77978C25.7858 8.7774 25.8429 8.77542 25.9004 8.77542C28.1724 8.77542 30.0208 10.6247 30.0208 12.8976C30.0208 15.1706 28.1724 17.0199 25.9004 17.0199Z" fill="#00C352"/>
</svg>
