<svg width="20" height="20" viewBox="0 0 20 20" fill="none" xmlns="http://www.w3.org/2000/svg">
<path d="M19.2405 15.6469L15.3216 11.728C14.8538 11.2603 14.0928 11.2603 13.6249 11.728L12.6059 12.7471C12.2866 13.0664 12.1856 13.5223 12.3022 13.9284L11.9178 14.3129C11.9176 14.313 11.9176 14.3131 11.9174 14.3132C11.6444 14.5866 9.94389 14.1671 7.88834 12.1115C5.83311 10.0563 5.4135 8.35609 5.68655 8.08253C5.68655 8.08245 5.68662 8.08245 5.68662 8.08245L6.07147 7.69765C6.1801 7.72886 6.29221 7.7448 6.4044 7.7448C6.71162 7.7448 7.01881 7.62788 7.25276 7.39402L8.27182 6.37496C8.73959 5.90718 8.73959 5.14613 8.27182 4.67832L4.35295 0.759409C4.12639 0.532847 3.8251 0.408081 3.50467 0.408081C3.18416 0.408081 2.88299 0.532925 2.65639 0.759409L1.63725 1.77855C1.31795 2.09785 1.21701 2.55378 1.33362 2.95984C1.33362 2.95984 1.00768 3.2889 0.991467 3.30968C-0.0926345 4.51472 -0.296033 6.41195 0.422678 8.68027C1.12647 10.9012 2.64365 13.254 4.69483 15.3051C6.74592 17.3562 9.09869 18.8734 11.3197 19.5772C12.2119 19.8599 13.0465 20 13.8044 20C15.0471 20 16.0832 19.6231 16.8259 18.8805L17.0397 18.6666C17.1468 18.6974 17.2586 18.714 17.373 18.714C17.6935 18.714 17.9948 18.5892 18.2213 18.3627L19.2405 17.3435C19.7082 16.8758 19.7082 16.1147 19.2405 15.6469ZM3.50467 1.60769L7.42358 5.52663L6.40506 6.54624C6.40506 6.54624 6.40487 6.54605 6.40451 6.5457L6.38987 6.53105L4.44506 4.58624L2.48557 2.62683L3.50467 1.60769ZM15.9777 18.0321C15.9776 18.0322 15.9776 18.0323 15.9775 18.0323C15.1144 18.8953 13.589 19.0378 11.6821 18.4335C9.64104 17.7867 7.46084 16.3744 5.54323 14.4567C3.62553 12.5391 2.21319 10.3589 1.56643 8.31781C0.962131 6.41089 1.10467 4.88539 1.9678 4.02222L1.96787 4.02214L2.07608 3.91394L5.11737 6.95519L4.83842 7.23413C4.83822 7.23433 4.83807 7.23456 4.83783 7.2348C3.68217 8.39191 5.07076 10.9905 7.0401 12.9599C8.51408 14.4339 10.3406 15.5825 11.6515 15.5825C12.0922 15.5825 12.4747 15.4527 12.7658 15.1615C12.766 15.1614 12.766 15.1613 12.7662 15.1612L13.0448 14.8826L16.0861 17.9238L15.9777 18.0321ZM17.3731 17.5144L13.4542 13.5955L14.4733 12.5764L18.3922 16.4952C18.3922 16.4952 17.3735 17.5147 17.3731 17.5144Z" fill="#00C352"/>
<path d="M15.1882 4.81186C14.0472 3.67088 12.5303 3.04256 10.9169 3.0426C10.5856 3.0426 10.3171 3.31116 10.3171 3.64245C10.3171 3.97374 10.5857 4.24229 10.9169 4.24229C12.2099 4.24221 13.4255 4.74581 14.3399 5.66014C15.2542 6.57444 15.7577 7.79002 15.7576 9.08295C15.7576 9.41424 16.0262 9.68288 16.3575 9.68288C16.6887 9.68288 16.9573 9.41432 16.9573 9.08311C16.9574 7.46967 16.329 5.95284 15.1882 4.81186Z" fill="#00C352"/>
<path d="M17.3396 2.66043C15.6239 0.944766 13.3429 -7.81202e-05 10.9167 4.84447e-09C10.5854 4.84447e-09 10.3169 0.268594 10.3169 0.599844C10.3169 0.931133 10.5855 1.19969 10.9167 1.19969C13.0225 1.19961 15.0022 2.01969 16.4913 3.50871C17.9803 4.9977 18.8003 6.97742 18.8003 9.08316C18.8003 9.41445 19.0688 9.68301 19.4001 9.68301C19.7314 9.68301 20 9.41445 20 9.08324C20 6.65699 19.0552 4.37605 17.3396 2.66043Z" fill="#00C352"/>
<path d="M13.0366 6.96327C12.4622 6.38882 11.7294 6.08527 10.9173 6.08527C10.9173 6.08527 10.9171 6.08527 10.917 6.08527C10.5857 6.08534 10.3172 6.35386 10.3173 6.68519C10.3173 7.01648 10.5859 7.28503 10.9172 7.28495C10.9173 7.28495 10.9173 7.28495 10.9174 7.28495C11.4113 7.28495 11.839 7.46214 12.1884 7.81156C12.5329 8.15609 12.715 8.59574 12.715 9.08281C12.7149 9.41409 12.9835 9.68265 13.3147 9.68273H13.3148C13.6461 9.68273 13.9146 9.41417 13.9146 9.08296C13.9147 8.27077 13.6111 7.5378 13.0366 6.96327Z" fill="#00C352"/>
</svg>
