<svg width="19" height="19" viewBox="0 0 19 19" fill="none" xmlns="http://www.w3.org/2000/svg">
<path d="M7.40195 3.75H7.39424L7.38655 3.75047C7.13367 3.76608 6.90476 3.89669 6.80412 4.11117H6.75V4.36117V14.6088C6.75 14.8213 6.84941 14.9911 6.99551 15.1004C7.13496 15.2049 7.30902 15.25 7.47368 15.25C7.63346 15.25 7.80574 15.2037 7.94456 15.1019C8.08941 14.9956 8.19736 14.8269 8.19736 14.6088V10.7958H10.0144C10.8945 10.7958 11.7115 10.567 12.3092 9.99911C12.9094 9.42879 13.25 8.55314 13.25 7.34061V7.19015C13.25 5.97841 12.9134 5.10633 12.3184 4.53942C11.7258 3.97482 10.9155 3.75 10.0431 3.75H7.40195ZM11.8027 7.38579C11.8027 8.13128 11.6214 8.63664 11.3287 8.95448C11.0392 9.26892 10.6051 9.43813 10.0144 9.43813H8.19742V5.16792H10.0144C10.6066 5.16792 11.0406 5.33421 11.3296 5.64494C11.6214 5.95872 11.8027 6.45967 11.8027 7.20521V7.38579Z" fill="#121212" stroke="#121212" stroke-width="0.5"/>
<rect x="1" y="1" width="17" height="17" rx="4" stroke="#121212" stroke-width="2" stroke-linejoin="round"/>
</svg>
