<svg width="5" height="8" viewBox="0 0 5 8" fill="none" xmlns="http://www.w3.org/2000/svg">
<path d="M4.28837 7.46638L4.28846 7.46647C4.33751 7.51122 4.43421 7.51111 4.48302 7.46655L4.4832 7.46638C4.49298 7.45747 4.4967 7.45064 4.49814 7.4474C4.49969 7.44392 4.5 7.44143 4.5 7.4397C4.5 7.43798 4.49969 7.43549 4.49815 7.43201C4.49671 7.42878 4.49299 7.42196 4.48321 7.41305L4.4832 7.41304L1.14597 4.36937L0.740909 3.99994L1.14597 3.63051L4.48303 0.587026C4.48304 0.587016 4.48305 0.587007 4.48306 0.586998C4.48307 0.586983 4.48309 0.586967 4.48311 0.586952C4.49286 0.578036 4.49659 0.571206 4.49804 0.567953C4.4996 0.564446 4.4999 0.561942 4.4999 0.560214C4.4999 0.558486 4.4996 0.555999 4.49805 0.55252C4.49661 0.549286 4.49288 0.542459 4.4831 0.533537L4.48303 0.533469C4.43416 0.488879 4.33734 0.488786 4.28828 0.533537L4.28828 0.533539L0.516822 3.97327C0.506969 3.98226 0.503249 3.98911 0.501832 3.9923C0.500308 3.99573 0.5 3.99818 0.5 3.99992C0.5 4.00161 0.500299 4.00409 0.501853 4.00758C0.503298 4.01083 0.507038 4.01768 0.516824 4.02661C0.516836 4.02662 0.516848 4.02663 0.51686 4.02665L4.28837 7.46638Z" fill="#00C352" stroke="#00C352"/>
</svg>
