<?xml version="1.0" encoding="UTF-8" standalone="no"?>
<svg
   xmlns:dc="http://purl.org/dc/elements/1.1/"
   xmlns:cc="http://creativecommons.org/ns#"
   xmlns:rdf="http://www.w3.org/1999/02/22-rdf-syntax-ns#"
   xmlns:svg="http://www.w3.org/2000/svg"
   xmlns="http://www.w3.org/2000/svg"
   xmlns:sodipodi="http://sodipodi.sourceforge.net/DTD/sodipodi-0.dtd"
   xmlns:inkscape="http://www.inkscape.org/namespaces/inkscape"
   width="48"
   height="33.811069"
   viewBox="0 0 48 33.811069"
   version="1.1"
   id="svg10"
   sodipodi:docname="carbon-dioxide.svg"
   style="fill:none"
   inkscape:version="0.92.2 2405546, 2018-03-11">
  <metadata
     id="metadata16">
    <rdf:RDF>
      <cc:Work
         rdf:about="">
        <dc:format>image/svg+xml</dc:format>
        <dc:type
           rdf:resource="http://purl.org/dc/dcmitype/StillImage" />
        <dc:title></dc:title>
      </cc:Work>
    </rdf:RDF>
  </metadata>
  <defs
     id="defs14" />
  <sodipodi:namedview
     pagecolor="#ffffff"
     bordercolor="#666666"
     borderopacity="1"
     objecttolerance="10"
     gridtolerance="10"
     guidetolerance="10"
     inkscape:pageopacity="0"
     inkscape:pageshadow="2"
     inkscape:window-width="854"
     inkscape:window-height="480"
     id="namedview12"
     showgrid="false"
     fit-margin-top="0"
     fit-margin-left="0"
     fit-margin-right="0"
     fit-margin-bottom="0"
     inkscape:zoom="4.9166667"
     inkscape:cx="1.6271186"
     inkscape:cy="16.9056"
     inkscape:window-x="0"
     inkscape:window-y="0"
     inkscape:window-maximized="0"
     inkscape:current-layer="svg10" />
  <path
     d="M 36.0372,9.88177 C 35.4237,7.31567 34.0279,4.98507 32.0257,3.21877 29.6728,1.1431 26.6474,0 23.5067,0 16.4029,0 10.6235,5.77937 10.6235,12.88327 c 0,0.1102 0.0014,0.2205 0.0042,0.3309 -0.109,-0.0036 -0.2179,-0.0053 -0.3267,-0.0053 -5.67997,0 -10.301,4.621 -10.301,10.3011 0,5.68 4.62103,10.3011 10.3011,10.3011 h 25.7343 c 6.5973,0 11.9646,-5.3673 11.9646,-11.9646 0,-6.597 -5.3661,-11.964 -11.9628,-11.9647 z m -0.0018,21.1167 H 10.3011 c -4.12926,0 -7.4886,-3.3594 -7.4886,-7.4885 0,-4.1291 3.35934,-7.4886 7.4886,-7.4886 0.5318,0 1.0682,0.0579 1.5942,0.1719 l 2.0325,0.4405 -0.3483,-2.0503 c -0.0952,-0.5605 -0.1434,-1.1326 -0.1434,-1.7002 0,-5.553 4.5177,-10.07067 10.0707,-10.07067 5.0265,0 9.3174,3.75077 9.981,8.72467 l 0.1815,1.3603 1.3643,-0.1483 c 0.3342,-0.0364 0.6713,-0.0548 1.0018,-0.0548 5.0465,0 9.1521,4.1056 9.1521,9.1521 0,5.0465 -4.1056,9.1519 -9.1521,9.1519 z"
     id="path2"
     inkscape:connector-curvature="0"
     style="fill:#00c352" />
  <path
     d="m 21.7614,22.83347 c -0.1114,0.2737 -0.2582,0.5043 -0.4405,0.6916 -0.1823,0.1876 -0.3825,0.3396 -0.6002,0.4559 -0.218,0.1165 -0.4459,0.2028 -0.6838,0.2583 -0.2381,0.0558 -0.4687,0.0835 -0.6914,0.0835 -0.4357,0 -0.8281,-0.0885 -1.1776,-0.2659 -0.3495,-0.1771 -0.6484,-0.4178 -0.8965,-0.7217 -0.2484,-0.304 -0.4383,-0.6534 -0.5698,-1.0485 -0.1319,-0.3951 -0.1976,-0.8054 -0.1976,-1.2308 0,-0.3951 0.0556,-0.7849 0.1672,-1.17 0.1114,-0.3848 0.2835,-0.7294 0.5166,-1.0332 0.2329,-0.304 0.5266,-0.552 0.8813,-0.7446 0.3545,-0.1923 0.7697,-0.2887 1.2459,-0.2887 0.2228,0 0.4507,0.0228 0.6838,0.0683 0.2329,0.0456 0.4608,0.1268 0.6838,0.2431 0.2227,0.1165 0.4277,0.2685 0.6153,0.4558 0.1873,0.1875 0.3418,0.4231 0.4634,0.7066 l 1.9146,-1.3371 c -0.3647,-0.699 -0.9193,-1.2662 -1.6638,-1.7019 -0.7445,-0.4355 -1.6234,-0.6534 -2.6363,-0.6534 -0.8509,0 -1.6106,0.1572 -2.2793,0.4711 -0.6685,0.314 -1.236,0.7244 -1.7018,1.2307 -0.466,0.5066 -0.8205,1.0815 -1.0637,1.7246 -0.2431,0.6435 -0.3647,1.2893 -0.3647,1.9374 0,0.6891 0.1292,1.3675 0.3875,2.0361 0.2583,0.6686 0.6229,1.2664 1.094,1.793 0.471,0.5269 1.0333,0.9497 1.6867,1.2688 0.6533,0.3191 1.3699,0.4786 2.1502,0.4786 0.4455,0 0.9015,-0.0558 1.3675,-0.1671 0.4658,-0.1114 0.9065,-0.2735 1.322,-0.4863 0.4152,-0.2127 0.7825,-0.4761 1.1016,-0.7901 0.319,-0.3139 0.5596,-0.6686 0.7218,-1.0637 z"
     id="path4"
     inkscape:connector-curvature="0"
     style="fill:#00c352" />
  <path
     d="m 34.6621,19.08057 c -0.2535,-0.6585 -0.6132,-1.246 -1.0789,-1.7627 -0.4661,-0.5167 -1.0283,-0.9319 -1.6867,-1.2459 -0.6586,-0.3139 -1.3879,-0.4711 -2.1881,-0.4711 -0.7802,0 -1.4993,0.1496 -2.1577,0.4483 -0.6586,0.2989 -1.2285,0.6989 -1.7094,1.2004 -0.4812,0.5014 -0.8561,1.0815 -1.1244,1.7398 -0.2685,0.6586 -0.4027,1.3424 -0.4027,2.0513 0,0.699 0.1292,1.3778 0.3875,2.0362 0.2583,0.6586 0.6203,1.2436 1.0864,1.755 0.4659,0.5117 1.028,0.9245 1.6867,1.2384 0.6583,0.3142 1.3878,0.4711 2.188,0.4711 0.7799,0 1.4991,-0.152 2.1578,-0.4559 0.6584,-0.3038 1.2256,-0.7066 1.7018,-1.208 0.4761,-0.5014 0.8484,-1.0812 1.1169,-1.7398 0.2683,-0.6584 0.4026,-1.3421 0.4026,-2.0513 0,-0.6786 -0.1267,-1.3472 -0.3798,-2.0058 z m -2.3325,3.153 c -0.1167,0.3901 -0.2913,0.7396 -0.5243,1.0484 -0.2332,0.3091 -0.5269,0.5599 -0.8813,0.7522 -0.3547,0.1925 -0.77,0.2887 -1.246,0.2887 -0.4558,0 -0.8611,-0.0911 -1.2155,-0.2736 -0.3548,-0.1823 -0.651,-0.4254 -0.889,-0.7293 -0.2381,-0.304 -0.4178,-0.6507 -0.5394,-1.0409 -0.1216,-0.3898 -0.1824,-0.7925 -0.1824,-1.208 0,-0.405 0.0583,-0.8028 0.1748,-1.1928 0.1163,-0.3899 0.2937,-0.737 0.5318,-1.0409 0.238,-0.3039 0.5319,-0.5494 0.8813,-0.737 0.3495,-0.1874 0.7621,-0.2811 1.2384,-0.2811 0.4559,0 0.8586,0.0888 1.2081,0.2659 0.3495,0.1773 0.6457,0.4155 0.8889,0.7141 0.2431,0.2989 0.4256,0.6434 0.5471,1.0333 0.1215,0.3901 0.1823,0.7927 0.1823,1.2079 -10e-5,0.4055 -0.0585,0.8032 -0.1748,1.1931 z"
     id="path6"
     inkscape:connector-curvature="0"
     style="fill:#00c352" />
  <path
     d="m 36.6728,27.39757 c 0.0428,-0.0473 0.1057,-0.1008 0.1889,-0.1603 0.0831,-0.0593 0.1735,-0.1188 0.2709,-0.1782 0.0974,-0.0594 0.196,-0.1176 0.2958,-0.1747 0.0997,-0.057 0.1853,-0.1068 0.2565,-0.1497 0.1045,-0.0617 0.2068,-0.1294 0.3065,-0.2031 0.0999,-0.0736 0.19,-0.1592 0.2709,-0.2566 0.0807,-0.0973 0.1461,-0.2079 0.196,-0.3314 0.0499,-0.1235 0.0748,-0.2638 0.0748,-0.4206 0,-0.3801 -0.1366,-0.6818 -0.4099,-0.9053 -0.2733,-0.2233 -0.6664,-0.3349 -1.1796,-0.3349 -0.2092,0 -0.4098,0.019 -0.6023,0.057 -0.1924,0.038 -0.3694,0.089 -0.531,0.1533 -0.1616,0.0641 -0.3065,0.1366 -0.4348,0.2174 -0.1283,0.0808 -0.2305,0.1638 -0.3066,0.2494 l 0.7271,0.8412 c 0.1378,-0.1569 0.2803,-0.2839 0.4277,-0.3814 0.1472,-0.0973 0.3207,-0.1462 0.5203,-0.1462 0.1758,0 0.3111,0.0405 0.4063,0.1212 0.095,0.081 0.1426,0.1878 0.1426,0.3208 0,0.0665 -0.019,0.1247 -0.057,0.1746 -0.0381,0.0499 -0.101,0.1058 -0.1889,0.1676 -0.088,0.0618 -0.2067,0.1331 -0.3564,0.2138 -0.1497,0.0809 -0.3361,0.183 -0.5595,0.3066 -0.2091,0.1188 -0.3826,0.24 -0.5203,0.3634 -0.1379,0.1236 -0.2471,0.2578 -0.3279,0.4027 -0.0808,0.145 -0.1378,0.3053 -0.171,0.4811 -0.0333,0.1758 -0.0499,0.3754 -0.0499,0.5987 h 3.5496 v -1.0264 z"
     id="path8"
     inkscape:connector-curvature="0"
     style="fill:#00c352" />
</svg>
