<svg width="29" height="22" viewBox="0 0 29 22" fill="none" xmlns="http://www.w3.org/2000/svg">
<path d="M26.9618 0H2.03822C0.914467 0 0 0.946 0 2.1085V19.8915C0 21.054 0.914467 22 2.03822 22H26.9618C28.0855 22 29 21.054 29 19.8915V2.1085C29 0.946 28.0855 0 26.9618 0ZM28.0333 19.8915C28.0333 20.5025 27.5529 21 26.9618 21H2.03822C1.4471 21 0.966667 20.5025 0.966667 19.8915V2.1085C0.966667 1.4975 1.4471 1 2.03822 1H26.9618C27.5529 1 28.0333 1.4975 28.0333 2.1085V19.8915Z" fill="black"/>
<path d="M7.54545 14H3.45455C3.20318 14 3 14.224 3 14.5C3 14.776 3.20318 15 3.45455 15H7.54545C7.79682 15 8 14.776 8 14.5C8 14.224 7.79682 14 7.54545 14Z" fill="black"/>
<path d="M14.4545 14H9.54545C9.24382 14 9 14.224 9 14.5C9 14.776 9.24382 15 9.54545 15H14.4545C14.7562 15 15 14.776 15 14.5C15 14.224 14.7562 14 14.4545 14Z" fill="black"/>
<path d="M3.66667 17H3.33333C3.149 17 3 17.224 3 17.5C3 17.776 3.149 18 3.33333 18H3.66667C3.851 18 4 17.776 4 17.5C4 17.224 3.851 17 3.66667 17Z" fill="black"/>
<path d="M6.5 17H5.5C5.2235 17 5 17.224 5 17.5C5 17.776 5.2235 18 5.5 18H6.5C6.7765 18 7 17.776 7 17.5C7 17.224 6.7765 17 6.5 17Z" fill="black"/>
<path d="M9.33333 17H8.66667C8.298 17 8 17.224 8 17.5C8 17.776 8.298 18 8.66667 18H9.33333C9.702 18 10 17.776 10 17.5C10 17.224 9.702 17 9.33333 17Z" fill="black"/>
<path d="M12.5 17H11.5C11.2235 17 11 17.224 11 17.5C11 17.776 11.2235 18 11.5 18H12.5C12.7765 18 13 17.776 13 17.5C13 17.224 12.7765 17 12.5 17Z" fill="black"/>
<path d="M14.145 17.1396C14.0545 17.2352 14 17.366 14 17.4969C14 17.6277 14.0545 17.7585 14.145 17.8541C14.2395 17.9447 14.37 18 14.5 18C14.63 18 14.76 17.9447 14.855 17.8541C14.945 17.7585 15 17.6277 15 17.4969C15 17.366 14.945 17.2352 14.855 17.1396C14.665 16.9535 14.3245 16.9535 14.145 17.1396Z" fill="black"/>
<path d="M23.3333 12C22.665 12 22.04 12.1745 21.5 12.4735C20.96 12.1745 20.335 12 19.6667 12C17.6453 12 16 13.57 16 15.5C16 17.43 17.6453 19 19.6667 19C20.335 19 20.96 18.8255 21.5 18.5265C22.04 18.8255 22.665 19 23.3333 19C25.3547 19 27 17.43 27 15.5C27 13.57 25.3547 12 23.3333 12ZM22.2857 15.5C22.2857 16.197 21.984 16.827 21.5 17.281C21.016 16.827 20.7143 16.197 20.7143 15.5C20.7143 14.803 21.016 14.173 21.5 13.719C21.984 14.173 22.2857 14.803 22.2857 15.5ZM17.0476 15.5C17.0476 14.1215 18.2225 13 19.6667 13C19.9972 13 20.311 13.065 20.6027 13.1725C20.0229 13.7915 19.6667 14.606 19.6667 15.5C19.6667 16.394 20.0229 17.2085 20.6027 17.8275C20.311 17.935 19.9972 18 19.6667 18C18.2225 18 17.0476 16.8785 17.0476 15.5ZM23.3333 18C23.0028 18 22.689 17.935 22.3973 17.8275C22.9771 17.2085 23.3333 16.394 23.3333 15.5C23.3333 14.606 22.9771 13.7915 22.3973 13.1725C22.689 13.065 23.0028 13 23.3333 13C24.7775 13 25.9524 14.1215 25.9524 15.5C25.9524 16.8785 24.7775 18 23.3333 18Z" fill="black"/>
<path d="M4.1275 11H7.1275H7.8725H10.8725C11.494 11 12 10.494 12 9.8725V5.8725V5.1275C12 4.506 11.494 4 10.8725 4H7.1275H4.1275C3.506 4 3 4.506 3 5.1275V9.8725C3 10.494 3.506 11 4.1275 11ZM6 8H4V7H6V8ZM4 9.8725V9H6V9.8725C6 9.916 6.008 9.9575 6.013 10H4.1275C4.057 10 4 9.943 4 9.8725ZM11 8H9V7.1275C9 7.057 9.057 7 9.1275 7H10.8725C10.916 7 10.9575 6.992 11 6.987V8ZM10.8725 10H8.987C8.992 9.9575 9 9.916 9 9.8725V9H11V9.8725C11 9.943 10.943 10 10.8725 10ZM10.8725 5C10.943 5 11 5.057 11 5.1275V5.8725C11 5.943 10.943 6 10.8725 6H9.1275C8.506 6 8 6.506 8 7.1275V9.8725C8 9.943 7.943 10 7.8725 10H7.1275C7.057 10 7 9.943 7 9.8725V5.1275C7 5.057 7.057 5 7.1275 5H10.8725ZM4.1275 5H6.013C6.008 5.0425 6 5.084 6 5.1275V6H4V5.1275C4 5.057 4.057 5 4.1275 5Z" fill="black"/>
</svg>
