<svg width="61" height="59" viewBox="0 0 61 59" fill="none" xmlns="http://www.w3.org/2000/svg">
<path d="M60.2591 49.2736C59.6429 49.0143 58.9338 49.3037 58.6748 49.9203C56.975 53.9647 53.0447 56.578 48.662 56.578C43.4035 56.578 39.0068 52.8161 38.0144 47.8397C38.0153 47.8206 38.0173 47.8018 38.0173 47.7824C38.0173 47.249 37.9474 46.7317 37.8174 46.2386C37.8089 46.0628 37.8043 45.8861 37.8043 45.7085C37.8043 41.1621 40.6073 37.2594 44.5738 35.6396L47.4975 46.0367C47.6478 46.5708 48.1331 46.9199 48.6614 46.9199C48.77 46.9199 48.8803 46.9051 48.9899 46.8742C49.633 46.6929 50.0077 46.0241 49.8266 45.3803L46.9027 34.9823C47.4755 34.8885 48.0631 34.839 48.662 34.839C52.9822 34.839 56.8904 37.4007 58.6187 41.3656C58.8859 41.9786 59.5988 42.2586 60.2113 41.9911C60.8237 41.7235 61.1035 41.0097 60.8362 40.3967C58.7231 35.5491 53.9444 32.4168 48.662 32.4168C47.8363 32.4168 47.028 32.4934 46.2435 32.6386L46.1398 32.2698C45.7899 31.0252 45.5287 29.7589 45.3564 28.4806C45.3564 28.4801 45.3563 28.4796 45.3563 28.4791C45.2566 27.7392 45.1863 26.9953 45.1469 26.2491C45.257 26.8045 45.7464 27.2231 46.3335 27.2231H47.9864C50.2748 27.2231 52.1366 25.3593 52.1366 23.0684C52.1366 20.7775 50.2748 18.9137 47.9864 18.9137H44.3575L35.0796 10.6832C35.5609 10.8231 36.0689 10.8997 36.5947 10.8997C39.5964 10.8997 42.0385 8.45487 42.0385 5.44983C42.0385 2.44479 39.5964 0 36.5947 0C33.5929 0 31.1508 2.44479 31.1508 5.44983C31.1508 6.47379 31.4347 7.43224 31.9273 8.25153C31.0618 7.85684 30.1148 7.64757 29.1351 7.64757C27.3342 7.64757 25.6411 8.34975 24.3676 9.62452L14.4619 19.5409C14.4593 19.5436 14.4572 19.5467 14.4546 19.5494C14.4228 19.5819 14.3925 19.6164 14.3641 19.6528C14.3608 19.6571 14.3572 19.6609 14.354 19.6652C14.3528 19.6667 14.3515 19.6681 14.3504 19.6697C13.7215 20.5071 13.3623 21.5102 13.2862 22.5922H10.9087C10.2405 22.5922 9.69892 23.1345 9.69892 23.8033V25.2853C9.69892 27.807 11.7482 29.8587 14.2673 29.8587H15.7016L15.0812 32.5403C14.491 32.4597 13.8889 32.4171 13.277 32.4171C5.95608 32.4167 0 38.3794 0 45.7083C0 50.1954 2.23283 54.1699 5.64433 56.5779H1.20975C0.541605 56.5779 0 57.1202 0 57.7889C0 58.4577 0.541605 59 1.20975 59H13.2771C19.8412 59 25.3071 54.2062 26.3675 47.9324C26.4414 48.5303 26.9497 48.9934 27.5669 48.9934H35.7956C36.5884 52.1034 38.4795 54.7781 41.0293 56.5779H33.3488C32.6807 56.5779 32.139 57.1202 32.139 57.7889C32.139 58.4577 32.6807 59 33.3488 59H48.6622C54.0211 59 58.8266 55.8047 60.9051 50.8595C61.1641 50.2431 60.8748 49.5332 60.2591 49.2736ZM45.1083 21.3357H47.9863C48.9405 21.3356 49.7169 22.1128 49.7169 23.0682C49.7169 24.0235 48.9407 24.8007 47.9863 24.8007H46.3334C45.7075 24.8007 45.1926 25.2766 45.1301 25.8866C45.1156 25.5214 45.1083 25.1562 45.1083 24.7903V21.3357ZM42.806 27.4361H30.6814C30.4876 27.2047 30.2843 26.9799 30.069 26.7644L26.2564 22.9474L31.2794 17.9189L42.7235 26.2177C42.7429 26.6245 42.7702 27.0309 42.806 27.4361ZM41.0208 29.8583L33.6079 36.5807L32.9016 32.1868C32.9002 32.1783 32.8988 32.1699 32.8972 32.1614C32.7511 31.361 32.5121 30.5898 32.1891 29.8583H41.0208ZM36.5947 2.42191C38.2623 2.42191 39.619 3.78012 39.619 5.44959C39.619 7.11905 38.2623 8.47727 36.5947 8.47727C34.927 8.47727 33.5703 7.11905 33.5703 5.44959C33.5703 3.78012 34.9269 2.42191 36.5947 2.42191ZM26.0784 11.3371C26.8949 10.5196 27.9804 10.0695 29.1351 10.0695C30.2898 10.0695 31.3753 10.5196 32.192 11.3372L42.6889 20.6696V23.2017L31.8632 15.3516C31.6502 15.1972 31.4015 15.1213 31.1539 15.1213C30.8422 15.1213 30.5324 15.2415 30.2982 15.4761L24.1885 21.5926L20.1512 20.4767L17.6418 19.7831L26.0784 11.3371ZM14.2673 27.4363C13.0825 27.4361 12.1184 26.4712 12.1184 25.285V25.0141H13.5705C13.8394 25.9067 14.2775 26.7331 14.8437 27.4363H14.2673ZM13.2771 56.5779C7.29019 56.5779 2.4195 51.702 2.4195 45.7083C2.4195 39.7147 7.29019 34.8388 13.2771 34.8388C13.7017 34.8388 14.1206 34.8641 14.5327 34.912L12.0986 45.4352C12.0154 45.7949 12.1006 46.173 12.3301 46.4621C12.5596 46.7512 12.9083 46.9195 13.2771 46.9195H24.067C23.4635 52.345 18.8552 56.5779 13.2771 56.5779ZM14.799 44.4973L16.8898 35.4583C20.7408 36.8226 23.6004 40.3033 24.067 44.4973H14.799ZM17.4387 33.0862L18.1813 29.8751L23.9795 33.2269L25.8836 41.536C24.5655 37.5554 21.4157 34.4036 17.4387 33.0862ZM26.2199 32.1711C26.1447 31.8432 25.9368 31.5614 25.6457 31.3931L17.814 26.8659C16.8148 26.2882 16.035 25.1494 15.7791 23.8938C15.6254 23.1394 15.6711 22.425 15.9045 21.8157L19.4275 22.7894L23.9159 24.0299L28.3583 28.4772C29.4813 29.6013 30.2269 31.0214 30.515 32.5847L31.9848 41.7274C31.9794 41.7274 31.9742 41.7271 31.9687 41.7271H28.4096V41.7269L26.2199 32.1711ZM28.7767 46.5712V44.1491H31.9686C33.5459 44.1491 34.8912 45.1614 35.3906 46.5712H28.7767ZM35.6638 42.9932C35.3132 42.7215 34.9325 42.4874 34.527 42.297L34.0665 39.4329L43.3425 31.021C43.478 31.6604 43.6337 32.2957 43.811 32.9259L43.915 33.2958C39.7513 34.8971 36.5909 38.5396 35.6638 42.9932Z" fill="#00C352"/>
</svg>
