<svg width="130" height="15" viewBox="0 0 130 15" fill="none" xmlns="http://www.w3.org/2000/svg">
<path d="M2.06425 0.799999H0.336252V12H2.06425V6.624L6.38425 12H8.65625L3.56825 5.872L8.62425 0.799999H6.38425L2.06425 5.264V0.799999ZM11.7019 0.799999V12H13.4299V7.456H14.1819C14.9979 7.456 16.0379 7.328 16.9179 6.576C17.4779 6.096 18.0059 5.296 18.0059 4.128C18.0059 3.296 17.7339 2.144 16.6139 1.408C15.7659 0.848 14.9019 0.799999 14.1659 0.799999H11.7019ZM13.4299 2.4H14.1659C14.7579 2.4 16.2779 2.48 16.2779 4.112C16.2779 5.68 14.9339 5.856 14.1819 5.856H13.4299V2.4ZM20.0866 0.799999L24.1186 8.656L22.6146 12H24.4066L29.4626 0.799999H27.6706L25.0946 6.608L22.1666 0.799999H20.0866ZM38.1611 2.4V0.799999H31.3131V2.4H33.8731V12H35.6011V2.4H38.1611ZM48.757 12H50.485V0.32L42.933 8.352V0.799999H41.205V12.48L48.757 4.448V12Z" fill="#121212"/>
<path d="M59.9831 0.799999V12H61.7111V2.4H66.4791V12H68.2071V0.799999H59.9831ZM78.5404 0.799999H72.3644V12H78.5404V10.4H74.0924V6.688H78.4124V5.088H74.0924V2.4H78.5404V0.799999ZM83.3656 0.799999V5.936C83.3656 7.328 83.2376 8.176 82.9656 8.88C82.6136 9.76 81.9896 10.384 81.1896 10.4V14.528H82.7896V12H90.0216V14.528H91.6216V10.4H90.3736V0.799999H83.3656ZM85.0936 2.4H88.6456V10.4H83.8136C84.2136 10.048 84.4856 9.632 84.6936 9.072C84.8696 8.592 85.0936 7.696 85.0936 5.952V2.4ZM102.529 12H104.385L99.0726 0.16L93.5046 12H95.3606L96.5926 9.28H101.345L102.529 12ZM97.2806 7.68L99.0086 3.904L100.673 7.68H97.2806ZM108.472 0.799999V7.472C108.472 8.352 108.456 9.616 107.912 10.128C107.688 10.336 107.224 10.496 106.84 10.496C106.632 10.496 106.408 10.432 106.28 10.4V12C106.52 12.064 106.792 12.096 107.096 12.096C108.024 12.096 108.664 11.76 109.064 11.424C110.12 10.544 110.2 9.28 110.2 7.984V2.4H113.896V12H115.624V0.799999H108.472ZM127.332 12H129.06V0.32L121.508 8.352V0.799999H119.78V12.48L127.332 4.448V12Z" fill="#00C352"/>
</svg>
