<svg width="194" height="22" viewBox="0 0 194 22" fill="none" xmlns="http://www.w3.org/2000/svg">
<path d="M3.34638 1.2H0.754381V18H3.34638V9.936L9.82638 18H13.2344L5.60238 8.808L13.1864 1.2H9.82638L3.34638 7.896V1.2ZM17.8028 1.2V18H20.3948V11.184H21.5228C22.7468 11.184 24.3068 10.992 25.6268 9.864C26.4668 9.144 27.2588 7.944 27.2588 6.192C27.2588 4.944 26.8508 3.216 25.1708 2.112C23.8988 1.272 22.6028 1.2 21.4988 1.2H17.8028ZM20.3948 3.6H21.4988C22.3868 3.6 24.6668 3.72 24.6668 6.168C24.6668 8.52 22.6508 8.784 21.5228 8.784H20.3948V3.6ZM30.3799 1.2L36.4279 12.984L34.1719 18H36.8599L44.4439 1.2H41.7559L37.8919 9.912L33.4999 1.2H30.3799ZM57.4917 3.6V1.2H47.2197V3.6H51.0597V18H53.6517V3.6H57.4917ZM73.3855 18H75.9775V0.48L64.6495 12.528V1.2H62.0575V18.72L73.3855 6.672V18Z" fill="#121212"/>
<path d="M90.2247 1.2V18H92.8167V3.6H99.9687V18H102.561V1.2H90.2247ZM118.061 1.2H108.797V18H118.061V15.6H111.389V10.032H117.869V7.632H111.389V3.6H118.061V1.2ZM125.298 1.2V8.904C125.298 10.992 125.106 12.264 124.698 13.32C124.17 14.64 123.234 15.576 122.034 15.6V21.792H124.434V18H135.282V21.792H137.682V15.6H135.81V1.2H125.298ZM127.89 3.6H133.218V15.6H125.97C126.57 15.072 126.978 14.448 127.29 13.608C127.554 12.888 127.89 11.544 127.89 8.928V3.6ZM154.043 18H156.827L148.859 0.24L140.507 18H143.291L145.139 13.92H152.267L154.043 18ZM146.171 11.52L148.763 5.856L151.259 11.52H146.171ZM162.958 1.2V11.208C162.958 12.528 162.934 14.424 162.118 15.192C161.782 15.504 161.086 15.744 160.51 15.744C160.198 15.744 159.862 15.648 159.67 15.6V18C160.03 18.096 160.438 18.144 160.894 18.144C162.286 18.144 163.246 17.64 163.846 17.136C165.43 15.816 165.55 13.92 165.55 11.976V3.6H171.094V18H173.686V1.2H162.958ZM191.248 18H193.84V0.48L182.512 12.528V1.2H179.92V18.72L191.248 6.672V18Z" fill="#00C352"/>
</svg>
