<svg width="114" height="114" viewBox="0 0 114 114" fill="none" xmlns="http://www.w3.org/2000/svg">
<g clip-path="url(#clip0)">
<path d="M104.406 73.7618C103.722 73.7618 103.047 73.4479 102.611 72.8556C101.882 71.8649 102.094 70.4716 103.084 69.7419C107.131 66.763 109.547 61.9993 109.547 57C109.547 52.0007 107.131 47.237 103.084 44.2573C102.094 43.5284 101.883 42.1351 102.611 41.1444C103.34 40.1538 104.734 39.9424 105.724 40.6713C110.906 44.4869 114 50.5908 114 57C114 63.4092 110.906 69.5131 105.724 73.3287C105.327 73.6209 104.864 73.7618 104.406 73.7618Z" fill="#00C352"/>
<path d="M98.2967 68.2241C97.613 68.2241 96.9381 67.9102 96.5015 67.3179C95.7726 66.3272 95.984 64.9339 96.9746 64.2041C99.263 62.5194 100.63 59.8258 100.63 57C100.63 54.1742 99.263 51.4814 96.9746 49.7958C95.984 49.067 95.7726 47.6728 96.5015 46.683C97.2304 45.6924 98.6246 45.481 99.6143 46.2099C103.039 48.7304 105.083 52.7643 105.083 57C105.083 61.2357 103.039 65.2696 99.6143 67.791C99.2169 68.0832 98.755 68.2241 98.2967 68.2241Z" fill="#00C352"/>
<path d="M9.59422 73.7618C9.13586 73.7618 8.67316 73.6209 8.27568 73.3287C3.0937 69.5131 0 63.4092 0 57C0 50.5908 3.0937 44.4869 8.27568 40.6713C9.26633 39.9424 10.6597 40.1538 11.3894 41.1444C12.1182 42.1351 11.906 43.5284 10.9162 44.2581C6.86929 47.237 4.45312 52.0007 4.45312 57C4.45312 61.9993 6.86929 66.763 10.9162 69.7419C11.906 70.4716 12.1182 71.8649 11.3894 72.8556C10.9528 73.4479 10.2778 73.7618 9.59422 73.7618Z" fill="#00C352"/>
<path d="M15.7041 68.2241C15.2449 68.2241 14.7831 68.0832 14.3856 67.7901C10.9614 65.2696 8.91748 61.2357 8.91748 57C8.91748 52.7643 10.9614 48.7304 14.3856 46.2099C15.3754 45.4802 16.7696 45.6924 17.4984 46.6821C18.2282 47.6728 18.0159 49.0661 17.0253 49.7959C14.737 51.4806 13.3706 54.1742 13.3706 57C13.3706 59.8258 14.737 62.5194 17.0253 64.2041C18.0159 64.933 18.2282 66.3272 17.4984 67.317C17.0618 67.9102 16.3878 68.2241 15.7041 68.2241Z" fill="#00C352"/>
<path d="M78.5247 18.7031C78.3794 18.7031 78.2324 18.6875 78.0898 18.6588C77.948 18.6301 77.8071 18.5875 77.6714 18.5318C77.5384 18.4761 77.4088 18.4074 77.2887 18.3265C77.1661 18.2465 77.0522 18.1534 76.9504 18.0508C76.8478 17.9482 76.7538 17.8351 76.6721 17.7125C76.5921 17.5925 76.5225 17.4629 76.4668 17.3272C76.4112 17.1932 76.3694 17.0532 76.3398 16.9106C76.3111 16.7679 76.2981 16.6209 76.2981 16.4766C76.2981 16.3322 76.3111 16.1852 76.3398 16.04C76.3694 15.8999 76.4112 15.7599 76.4668 15.6242C76.5225 15.4903 76.5921 15.3615 76.6721 15.2406C76.7538 15.118 76.8478 15.0049 76.9504 14.9023C77.0522 14.7997 77.1661 14.7066 77.2887 14.624C77.4088 14.544 77.5384 14.4753 77.6714 14.4196C77.8071 14.3639 77.948 14.3213 78.0898 14.2926C78.3751 14.2343 78.6716 14.2343 78.9587 14.2926C79.1013 14.3213 79.2413 14.3639 79.3753 14.4196C79.5101 14.4753 79.6397 14.544 79.7597 14.624C79.8823 14.7066 79.9963 14.7997 80.0989 14.9023C80.2007 15.0049 80.2946 15.118 80.3746 15.2406C80.4546 15.3615 80.5233 15.4903 80.579 15.6242C80.6347 15.7599 80.6773 15.8999 80.706 16.04C80.7347 16.1852 80.7504 16.3322 80.7504 16.4766C80.7504 16.6209 80.7347 16.7688 80.706 16.9106C80.6773 17.0532 80.6347 17.1941 80.579 17.3272C80.5233 17.4629 80.4546 17.5925 80.3746 17.7125C80.2946 17.8351 80.2007 17.9482 80.0989 18.0508C79.9963 18.1534 79.8823 18.2465 79.7597 18.3265C79.6397 18.4074 79.5101 18.4761 79.3753 18.5318C79.2413 18.5875 79.1013 18.6301 78.9587 18.6588C78.816 18.6875 78.669 18.7031 78.5247 18.7031Z" fill="#00C352"/>
<path d="M57 107.989C53.3166 107.989 50.3203 104.992 50.3203 101.309C50.3203 97.6261 53.3166 94.6298 57 94.6298C60.6834 94.6298 63.6797 97.6261 63.6797 101.309C63.6797 104.992 60.6834 107.989 57 107.989ZM57 99.0829C55.7728 99.0829 54.7734 100.081 54.7734 101.309C54.7734 102.537 55.7728 103.536 57 103.536C58.2281 103.536 59.2266 102.537 59.2266 101.309C59.2266 100.081 58.2281 99.0829 57 99.0829Z" fill="#00C352"/>
<path d="M82.3819 0H31.6181C27.0998 0 23.4233 3.67643 23.4233 8.19565V105.805C23.4233 110.323 27.0998 114 31.6181 114H82.3819C86.9011 114 90.5767 110.323 90.5767 105.805V8.19565C90.5767 3.67643 86.9011 0 82.3819 0V0ZM86.1236 105.804C86.1236 107.868 84.4449 109.547 82.3819 109.547H31.6181C29.5551 109.547 27.8765 107.868 27.8765 105.804V18.7022H69.0982C70.328 18.7022 71.3248 17.7055 71.3248 16.4757C71.3248 15.2467 70.328 14.2491 69.0982 14.2491H27.8765V8.19565C27.8765 6.13173 29.5551 4.45312 31.6181 4.45312H82.3819C84.4449 4.45312 86.1236 6.13173 86.1236 8.19565V88.617H40.3017C39.0719 88.617 38.0751 89.6138 38.0751 90.8436C38.0751 92.0734 39.0719 93.0701 40.3017 93.0701H86.1236V105.804Z" fill="#00C352"/>
<path d="M54.8821 51.0453C52.9635 50.0265 51.7685 48.013 51.7685 45.7866C51.7685 42.5195 54.3464 39.8747 57.5 39.8747C60.6529 39.8747 63.2315 42.5195 63.2315 45.7866C63.2315 48.0294 62.0234 50.0488 60.0842 51.0629C59.4083 51.416 58.9866 52.1273 58.9866 52.9007V63.563C58.9866 64.4316 58.3026 65.1254 57.4773 65.1254C56.652 65.1254 55.9681 64.4316 55.9681 63.563V52.8766C55.9681 52.1087 55.5518 51.4007 54.8821 51.0453ZM54.8821 51.0453L54.7649 51.2661L54.8821 51.0453ZM57.4773 69.25C60.5327 69.25 63.0051 66.6922 63.0051 63.563V54.0703C65.6526 52.212 67.25 49.142 67.25 45.7866C67.25 40.2597 62.8829 35.75 57.5 35.75C52.1164 35.75 47.75 40.2597 47.75 45.7866C47.75 49.1178 49.3296 52.1761 51.9495 54.0382V63.563C51.9495 66.6922 54.422 69.25 57.4773 69.25Z" fill="#00C352" stroke="#00C352" stroke-width="0.5"/>
</g>
<defs>
<clipPath id="clip0">
<rect width="114" height="114" fill="white"/>
</clipPath>
</defs>
</svg>
