<svg width="58" height="58" viewBox="0 0 58 58" fill="none" xmlns="http://www.w3.org/2000/svg">
<path d="M47.5582 19.326L49.9969 16.8869C51.3217 15.5625 51.3217 13.4066 49.9969 12.0813C48.672 10.7564 46.5161 10.7564 45.1913 12.0813L42.5876 14.685C39.8715 12.7933 36.7753 11.4839 33.5312 10.8555V7.47656H35.7969C36.4226 7.47656 36.9297 6.96945 36.9297 6.34375V3.39844C36.9297 1.52443 35.4053 0 33.5312 0H24.4688C22.5947 0 21.0703 1.52443 21.0703 3.39844V6.34375C21.0703 6.96945 21.5774 7.47656 22.2031 7.47656H24.4688V10.8555C21.2252 11.4834 18.1285 12.7933 15.4124 14.685L12.8087 12.0813C11.4843 10.7564 9.32845 10.7564 8.00314 12.0813C6.67828 13.4061 6.67828 15.562 8.00314 16.8869L10.4418 19.326C7.06149 23.5364 5.21094 28.781 5.21094 34.2109C5.21094 47.3281 15.8828 58 29 58C42.1172 58 52.7891 47.3281 52.7891 34.2109C52.7891 28.781 50.9385 23.5364 47.5582 19.326ZM46.7931 13.6831C47.2352 13.2415 47.9534 13.242 48.395 13.6831C48.8362 14.1248 48.8362 14.8434 48.395 15.285L46.0541 17.6254C45.5267 17.0838 44.9735 16.5674 44.3983 16.0784L46.7931 13.6831ZM23.3359 3.39844C23.3359 2.77362 23.8439 2.26562 24.4688 2.26562H33.5312C34.1561 2.26562 34.6641 2.77362 34.6641 3.39844V5.21094H23.3359V3.39844ZM31.2656 7.47656V10.529C29.7642 10.3882 28.2362 10.3882 26.7344 10.529V7.47656H31.2656ZM9.60501 13.6831C10.0466 13.242 10.7653 13.2415 11.2069 13.6831L13.6017 16.0784C13.0265 16.5674 12.4733 17.0838 11.9459 17.6254L9.60501 15.285C9.16383 14.8434 9.16383 14.1248 9.60501 13.6831ZM29 55.7344C17.132 55.7344 7.47656 46.0789 7.47656 34.2109C7.47656 28.9757 9.37712 23.9315 12.8278 20.007C13.7783 18.9259 14.839 17.9383 15.9802 17.0701C18.8401 14.8938 22.2253 13.4614 25.7697 12.9273C26.8304 12.7685 27.9172 12.6875 29 12.6875C30.0828 12.6875 31.1696 12.7685 32.2298 12.9273C35.7747 13.4614 39.1599 14.8938 42.0203 17.0701C43.161 17.9383 44.2217 18.9259 45.1722 20.007C48.6229 23.9315 50.5234 28.9757 50.5234 34.2109C50.5234 46.0789 40.868 55.7344 29 55.7344Z" fill="#00C352"/>
<path d="M29 37.6094C30.874 37.6094 32.3984 36.0849 32.3984 34.2109C32.3984 32.7343 31.4515 31.4749 30.1328 31.0072V22.8828C30.1328 22.2571 29.6257 21.75 29 21.75C28.3743 21.75 27.8672 22.2571 27.8672 22.8828V31.0072C26.5485 31.4749 25.6016 32.7343 25.6016 34.2109C25.6016 36.0849 27.126 37.6094 29 37.6094ZM29 33.0781C29.6248 33.0781 30.1328 33.5861 30.1328 34.2109C30.1328 34.8358 29.6248 35.3438 29 35.3438C28.3752 35.3438 27.8672 34.8358 27.8672 34.2109C27.8672 33.5861 28.3752 33.0781 29 33.0781Z" fill="#00C352"/>
<path d="M41.0676 22.2598C41.0499 22.239 41.0322 22.2182 41.0122 22.1987C40.991 22.177 40.9684 22.1576 40.9459 22.1381C38.9493 20.1627 36.4828 18.7011 33.806 17.9108C33.2056 17.7338 32.5759 18.0763 32.3989 18.6764C32.2219 19.2764 32.5644 19.9065 33.1644 20.0835C35.1477 20.6694 36.9978 21.6819 38.5749 23.0337L37.8107 23.7979C37.3687 24.2404 37.3687 24.9577 37.8107 25.4002C38.032 25.6215 38.3218 25.7321 38.6121 25.7321C38.9019 25.7321 39.1918 25.6215 39.413 25.4002L40.179 24.6343C42.2287 27.0176 43.446 29.9514 43.6832 33.0781H42.5938C41.968 33.0781 41.4609 33.5857 41.4609 34.211C41.4609 34.8367 41.968 35.3438 42.5938 35.3438H43.6832C43.446 38.471 42.2287 41.4043 40.179 43.7877L39.413 43.0217C38.9705 42.5796 38.2532 42.5796 37.8107 43.0217C37.3682 43.4642 37.3682 44.1815 37.8107 44.624L38.5767 45.39C36.1934 47.4396 33.2596 48.657 30.1328 48.8946V47.8047C30.1328 47.179 29.6257 46.6719 29 46.6719C28.3743 46.6719 27.8672 47.179 27.8672 47.8047V48.8942C24.7404 48.657 21.8066 47.4396 19.4233 45.39L20.1893 44.624C20.6318 44.1815 20.6318 43.4642 20.1893 43.0217C19.7468 42.5796 19.0295 42.5796 18.587 43.0217L17.821 43.7877C15.7713 41.4043 14.554 38.4705 14.3168 35.3438H15.4062C16.032 35.3438 16.5391 34.8367 16.5391 34.211C16.5391 33.5852 16.032 33.0781 15.4062 33.0781H14.3168C14.554 29.9514 15.7713 27.0176 17.821 24.6343L18.587 25.4002C18.8082 25.6215 19.0981 25.7321 19.3879 25.7321C19.6782 25.7321 19.968 25.6215 20.1893 25.4002C20.6313 24.9577 20.6313 24.2404 20.1893 23.7979L19.4251 23.0337C21.0022 21.6814 22.8523 20.6694 24.8356 20.0835C25.4356 19.9065 25.7781 19.2764 25.6011 18.6764C25.4241 18.0763 24.7949 17.7343 24.194 17.9108C21.5177 18.7007 19.052 20.1619 17.0559 22.1363C17.0325 22.1562 17.0094 22.1766 16.9878 22.1983C16.9683 22.2177 16.951 22.2381 16.9333 22.2584C13.7566 25.4648 12.0078 29.7058 12.0078 34.211C12.0078 38.7157 13.7566 42.9562 16.9324 46.1621C16.9501 46.1829 16.9678 46.2037 16.9878 46.2232C17.0072 46.2431 17.0276 46.2604 17.0479 46.2781C20.2543 49.4544 24.4949 51.2032 29 51.2032C33.5047 51.2032 37.7452 49.4548 40.9512 46.279C40.972 46.2608 40.9928 46.2431 41.0122 46.2232C41.0317 46.2042 41.049 46.1834 41.0667 46.1635C44.2434 42.9571 45.9922 38.7161 45.9922 34.211C45.9922 29.7062 44.2434 25.4657 41.0676 22.2598Z" fill="#00C352"/>
<path d="M29 19.4844C29.6253 19.4844 30.1328 18.9768 30.1328 18.3516C30.1328 17.7263 29.6253 17.2188 29 17.2188C28.3747 17.2188 27.8672 17.7263 27.8672 18.3516C27.8672 18.9768 28.3747 19.4844 29 19.4844Z" fill="#00C352"/>
</svg>
